HIERARCHY
ROOT Hips
{
    OFFSET 0.000 93.594 0.000
    CHANNELS 6 Xposition Yposition Zposition Yrotation Xrotation Zrotation
    JOINT RightHip
    {
        OFFSET -9.500 -1.594 0.000
        CHANNELS 3 Yrotation Xrotation Zrotation
        JOINT RightKnee
        {
            OFFSET 0.000 -42.000 0.000
            CHANNELS 3 Yrotation Xrotation Zrotation
            JOINT RightAnkle
            {
                OFFSET 0.000 -42.000 0.000
                CHANNELS 3 Yrotation Xrotation Zrotation
                End Site
                {
                    OFFSET 0.000 -8.000 17.500
                }
            }
        }
    }
    JOINT LeftHip
    {
        OFFSET 9.500 -1.594 0.000
        CHANNELS 3 Yrotation Xrotation Zrotation
        JOINT LeftKnee
        {
            OFFSET 0.000 -42.000 0.000
            CHANNELS 3 Yrotation Xrotation Zrotation
            JOINT LeftAnkle
            {
                OFFSET 0.000 -42.000 0.000
                CHANNELS 3 Yrotation Xrotation Zrotation
                End Site
                {
                    OFFSET 0.000 -8.000 17.500
                }
            }
        }
    }
    JOINT Chest
    {
        OFFSET 0.000 14.348 0.000
        CHANNELS 3 Yrotation Xrotation Zrotation
        JOINT Chest2
        {
            OFFSET 0.000 9.746 0.000
            CHANNELS 3 Yrotation Xrotation Zrotation
            JOINT Chest3
            {
                OFFSET 0.000 10.149 0.000
                CHANNELS 3 Yrotation Xrotation Zrotation
                JOINT Chest4
                {
                    OFFSET 0.000 9.746 0.000
                    CHANNELS 3 Yrotation Xrotation Zrotation
                    JOINT Neck
                    {
                        OFFSET 0.000 10.417 0.000
                        CHANNELS 3 Yrotation Xrotation Zrotation
                        JOINT Head
                        {
                            OFFSET 0.000 9.000 0.000
                            CHANNELS 3 Yrotation Xrotation Zrotation
                            End Site
                            {
                                OFFSET 0.000 16.000 0.000
                            }
                        }
                    }
                    JOINT RightCollar
                    {
                        OFFSET -3.200 6.945 0.000
                        CHANNELS 3 Yrotation Xrotation Zrotation
                        JOINT RightShoulder
                        {
                            OFFSET -12.800 0.000 0.000
                            CHANNELS 3 Yrotation Xrotation Zrotation
                            JOINT RightElbow
                            {
OFFSET -0 -27 0.000
						CHANNELS 3 Xrotation Yrotation Zrotation
                                JOINT RightWrist
                                {
OFFSET -0 -26 0.000
						CHANNELS 3 Xrotation Yrotation Zrotation
                                    JOINT RightFinger0
                                    {
OFFSET -0.196 -2.56 3.210
						CHANNELS 3 Xrotation Yrotation Zrotation
                                        JOINT RightFinger01
                                        {
OFFSET -0 -3.788 0.000
						CHANNELS 3 Xrotation Yrotation Zrotation
                                            JOINT RightFinger0Nub
                                            {
OFFSET -0 -2.631 0.000
						CHANNELS 3 Xrotation Yrotation Zrotation
                                                End Site
                                                {
OFFSET 0 -2.256 0
                                                }
                                            }
                                        }
                                    }
                                    JOINT RightFinger1
                                    {
OFFSET -0.523 -3.316 2.035
						CHANNELS 3 Xrotation Yrotation Zrotation
                                        JOINT RightFinger11
                                        {
OFFSET 0.094 -5.366 1.028
						CHANNELS 3 Xrotation Yrotation Zrotation
                                            JOINT RightFinger12
                                            {
OFFSET -0 -3.723 0.000
						CHANNELS 3 Xrotation Yrotation Zrotation
                                                JOINT RightFinger1Nub
                                                {
OFFSET -0 -2.111 0.000
						CHANNELS 3 Xrotation Yrotation Zrotation
                                                    End Site
                                                    {
OFFSET 0 -1.857 0
                                                    }
                                                }
                                            }
                                        }
                                    }
                                    JOINT RightFinger2
                                    {
OFFSET -0.532 -3.479 0.778
						CHANNELS 3 Xrotation Yrotation Zrotation
                                        JOINT RightFinger21
                                        {
OFFSET 0.086 -5.322 0.323
						CHANNELS 3 Xrotation Yrotation Zrotation
                                            JOINT RightFinger22
                                            {
OFFSET -0 -4.062 0.000
						CHANNELS 3 Xrotation Yrotation Zrotation
                                                JOINT RightFinger2Nub
                                                {
OFFSET -0 -2.547 0.000
						CHANNELS 3 Xrotation Yrotation Zrotation
                                                    End Site
                                                    {
OFFSET 0 -2.031 0
                                                    }
                                                }
                                            }
                                        }
                                    }
                                    JOINT RightFinger3
                                    {
OFFSET -0.553 -3.461 -0.133
						CHANNELS 3 Xrotation Yrotation Zrotation
                                        JOINT RightFinger31
                                        {
OFFSET 0.023 -4.767 -0.493
						CHANNELS 3 Xrotation Yrotation Zrotation
                                            JOINT RightFinger32
                                            {
OFFSET -0 -3.541 0.000
						CHANNELS 3 Xrotation Yrotation Zrotation
                                                JOINT RightFinger3Nub
                                                {
OFFSET -0 -2.456 0.000
						CHANNELS 3 Xrotation Yrotation Zrotation
                                                    End Site
                                                    {
OFFSET 0 -1.91 0
                                                    }
                                                }
                                            }
                                        }
                                    }
                                    JOINT RightFinger4
                                    {
OFFSET -0.483 -3.251 -1.236
						CHANNELS 3 Xrotation Yrotation Zrotation
                                        JOINT RightFinger41
                                        {
OFFSET 0.023 -4.259 -1.122
						CHANNELS 3 Xrotation Yrotation Zrotation
                                            JOINT RightFinger42
                                            {
OFFSET -0 -2.835 0.000
						CHANNELS 3 Xrotation Yrotation Zrotation
                                                JOINT RightFinger4Nub
                                                {
OFFSET -0 -1.792 0.000
						CHANNELS 3 Xrotation Yrotation Zrotation
                                                    End Site
                                                    {
OFFSET 0 -1.692 0
                                                    }
                                                }
                                            }
                                        }
                                    }
                                }
                            }
                        }
                    }
                    JOINT LeftCollar
                    {
                        OFFSET 3.200 6.945 0.000
                        CHANNELS 3 Yrotation Xrotation Zrotation
                        JOINT LeftShoulder
                        {
                            OFFSET 12.800 0.000 0.000
                            CHANNELS 3 Yrotation Xrotation Zrotation
                            JOINT LeftElbow
                            {
OFFSET -0 -27 0.000
						CHANNELS 3 Xrotation Yrotation Zrotation
                                JOINT LeftWrist
                                {
OFFSET -0 -26 0.000
						CHANNELS 3 Xrotation Yrotation Zrotation
                                    JOINT LeftFinger0
                                    {
OFFSET -0.196 -2.56 3.210
						CHANNELS 3 Xrotation Yrotation Zrotation
                                        JOINT LeftFinger01
                                        {
OFFSET -0 -3.788 0.000
						CHANNELS 3 Xrotation Yrotation Zrotation
                                            JOINT LeftFinger0Nub
                                            {
OFFSET -0 -2.631 0.000
						CHANNELS 3 Xrotation Yrotation Zrotation
                                                End Site
                                                {
OFFSET 0 -2.256 0
                                                }
                                            }
                                        }
                                    }
                                    JOINT LeftFinger1
                                    {
OFFSET -0.523 -3.316 2.035
						CHANNELS 3 Xrotation Yrotation Zrotation
                                        JOINT LeftFinger11
                                        {
OFFSET 0.094 -5.366 1.028
						CHANNELS 3 Xrotation Yrotation Zrotation
                                            JOINT LeftFinger12
                                            {
OFFSET -0 -3.723 0.000
						CHANNELS 3 Xrotation Yrotation Zrotation
                                                JOINT LeftFinger1Nub
                                                {
OFFSET -0 -2.111 0.000
						CHANNELS 3 Xrotation Yrotation Zrotation
                                                    End Site
                                                    {
OFFSET 0 -1.857 0
                                                    }
                                                }
                                            }
                                        }
                                    }
                                    JOINT LeftFinger2
                                    {
OFFSET -0.532 -3.479 0.778
						CHANNELS 3 Xrotation Yrotation Zrotation
                                        JOINT LeftFinger21
                                        {
OFFSET 0.086 -5.322 0.323
						CHANNELS 3 Xrotation Yrotation Zrotation
                                            JOINT LeftFinger22
                                            {
OFFSET -0 -4.062 0.000
						CHANNELS 3 Xrotation Yrotation Zrotation
                                                JOINT LeftFinger2Nub
                                                {
OFFSET -0 -2.547 0.000
						CHANNELS 3 Xrotation Yrotation Zrotation
                                                    End Site
                                                    {
OFFSET 0 -2.031 0
                                                    }
                                                }
                                            }
                                        }
                                    }
                                    JOINT LeftFinger3
                                    {
OFFSET -0.553 -3.461 -0.133
						CHANNELS 3 Xrotation Yrotation Zrotation
                                        JOINT LeftFinger31
                                        {
OFFSET 0.023 -4.767 -0.493
						CHANNELS 3 Xrotation Yrotation Zrotation
                                            JOINT LeftFinger32
                                            {
OFFSET -0 -3.541 0.000
						CHANNELS 3 Xrotation Yrotation Zrotation
                                                JOINT LeftFinger3Nub
                                                {
OFFSET -0 -2.456 0.000
						CHANNELS 3 Xrotation Yrotation Zrotation
                                                    End Site
                                                    {
OFFSET 0 -1.91 0
                                                    }
                                                }
                                            }
                                        }
                                    }
                                    JOINT LeftFinger4
                                    {
OFFSET -0.483 -3.251 -1.236
						CHANNELS 3 Xrotation Yrotation Zrotation
                                        JOINT LeftFinger41
                                        {
OFFSET 0.023 -4.259 -1.122
						CHANNELS 3 Xrotation Yrotation Zrotation
                                            JOINT LeftFinger42
                                            {
OFFSET -0 -2.835 0.000
						CHANNELS 3 Xrotation Yrotation Zrotation
                                                JOINT LeftFinger4Nub
                                                {
OFFSET -0 -1.792 0.000
						CHANNELS 3 Xrotation Yrotation Zrotation
                                                    End Site
                                                    {
OFFSET 0 -1.692 0
                                                    }
                                                }
                                            }
                                        }
                                    }
                                }
                            }
                        }
                    }
                }
            }
        }
    }
}
MOTION

Frames: 6
Frame Time: 0.017
-175.41 90.88 100.76 89.93 3.10 -5.45 -8.00 -4.91 -7.39 0.00 17.15 0.00 -37.96 -3.05 18.28 -23.96 -19.56 16.37 0.00 36.80 0.00 4.86 -17.69 -9.58 -4.64 6.67 -5.75 -1.20 1.57 -1.38 -2.07 2.45 -2.31 0.24 2.65 0.04 0.01 40.58 -0.98 6.96 28.59 1.35 20.72 -11.54 -10.61 15.21 -37.61 17.01 -0.7 -46.45 3.85 -3.46 -10.28 -30.64 -51.79 -0 19.51 6.96 -0 -10.31 -2.84 -0 0.00 0 -0 0.00 -15 -0 12.19 0 -0 45.60 0 -0 22.80 0 -0 0.00 0 -0 29.79 0 -0 29.79 0 -0 29.79 0 -0 0.00 15 -0 43.72 0 -0 43.72 0 -0 43.72 0 -0 0.00 25 -0 52.61 0 -0 52.61 0 -0 52.61 -3.80 -6.19 1.79 13.59 -16.32 20.93 -50.17 -3.38 -7.76 -50.98 30.55 22.89 -12.51 0 -42.35 -14.97 0 1.87 13.29 0 0.00 0.00 0 0.00 -15.00 0 11.53 0.00 0 -2.83 0.00 0 -1.42 0.00 0 0.00 0.00 0 7.29 0.00 0 7.29 0.00 0 7.29 0.00 0 0.00 15.00 0 -5.76 0.00 0 -5.76 0.00 0 -5.76 0.00 0 0.00 25.00 0 -4.89 0.00 0 -4.89 0.00 0 -4.89 
-175.45 90.88 100.74 89.81 3.05 -5.46 -7.90 -4.93 -7.42 -0.00 17.17 -0.00 -37.92 -3.01 18.26 -23.88 -19.53 16.34 -0.00 36.81 -0.00 4.91 -17.68 -9.59 -4.60 6.68 -5.74 -1.18 1.57 -1.38 -2.06 2.46 -2.31 0.24 2.65 0.04 -0.00 40.57 -1.01 6.98 28.62 1.32 20.71 -11.59 -10.49 14.86 -37.35 17.59 2.3 -52.61 6.86 -4.04 -11.87 -28.13 -51.61 -0 18.05 7.32 -0 -11.77 -4.55 -0 0.00 0 -0 0.00 -15 -0 11.87 0 -0 44.86 0 -0 22.43 0 -0 0.00 0 -0 31.10 0 -0 31.10 0 -0 31.10 0 -0 0.00 15 -0 43.96 0 -0 43.96 0 -0 43.96 0 -0 0.00 25 -0 52.89 0 -0 52.89 0 -0 52.89 -3.88 -6.21 1.78 13.82 -16.34 20.77 -50.16 -3.54 -7.76 -51.03 30.67 23.48 -12.48 0 -42.40 -14.91 0 1.82 13.45 0 0.00 0.00 0 0.00 -15.00 0 11.40 0.00 0 -2.86 0.00 0 -1.43 0.00 0 0.00 0.00 0 7.16 0.00 0 7.16 0.00 0 7.16 0.00 0 0.00 15.00 0 -5.85 0.00 0 -5.85 0.00 0 -5.85 0.00 0 0.00 25.00 0 -5.01 0.00 0 -5.01 0.00 0 -5.01 
-175.49 90.88 100.67 89.72 3.03 -5.48 -7.84 -4.96 -7.44 0.00 17.14 0.00 -37.87 -2.95 18.25 -23.80 -19.58 16.33 0.00 36.89 0.00 4.93 -17.68 -9.56 -4.57 6.65 -5.72 -1.18 1.57 -1.38 -2.04 2.45 -2.30 0.25 2.65 0.04 -0.01 40.59 -1.04 6.99 28.65 1.29 20.64 -11.58 -10.36 14.16 -36.41 18.23 3.44 -54.57 9.52 -4.46 -12.25 -27.31 -51.23 -0 17.50 8.08 -0 -12.32 -0.58 -0 0.00 0 -0 0.00 -15 -0 12.03 0 -0 44.51 0 -0 22.25 0 -0 0.00 0 -0 31.56 0 -0 31.56 0 -0 31.56 0 -0 0.00 15 -0 43.74 0 -0 43.74 0 -0 43.74 0 -0 0.00 25 -0 52.49 0 -0 52.49 0 -0 52.49 -3.99 -6.17 1.74 14.11 -16.35 20.61 -49.93 -3.61 -7.67 -51.10 30.65 23.78 -12.62 0 -42.56 -15.20 0 1.66 14.13 0 0.00 0.00 0 0.00 -15.00 0 11.24 0.00 0 -2.86 0.00 0 -1.43 0.00 0 0.00 0.00 0 7.02 0.00 0 7.02 0.00 0 7.02 0.00 0 0.00 15.00 0 -5.95 0.00 0 -5.95 0.00 0 -5.95 0.00 0 0.00 25.00 0 -5.08 0.00 0 -5.08 0.00 0 -5.08 
-175.52 90.87 100.60 89.68 3.02 -5.53 -7.83 -4.93 -7.44 0.00 17.04 0.00 -37.85 -2.86 18.23 -23.79 -19.63 16.34 -0.00 36.98 -0.00 4.92 -17.71 -9.52 -4.53 6.61 -5.68 -1.17 1.56 -1.37 -2.03 2.44 -2.29 0.25 2.65 0.03 -0.01 40.63 -1.04 6.96 28.68 1.28 20.51 -11.57 -10.24 13.38 -34.93 18.75 2.22 -53.31 11.15 -5.21 -11.65 -27.74 -51.34 -0 18.03 7.87 -0 -11.79 -0.37 -0 0.00 0 -0 0.00 -15 -0 11.92 0 -0 44.54 0 -0 22.27 0 -0 0.00 0 -0 31.01 0 -0 31.01 0 -0 31.01 0 -0 0.00 15 -0 43.35 0 -0 43.35 0 -0 43.35 0 -0 0.00 25 -0 52.04 0 -0 52.04 0 -0 52.04 -4.18 -6.11 1.66 14.40 -16.37 20.49 -49.65 -3.52 -7.56 -51.04 30.33 23.85 -12.77 0 -42.61 -15.50 0 1.60 14.95 0 0.00 0.00 0 0.00 -15.00 0 11.08 0.00 0 -2.85 0.00 0 -1.43 0.00 0 0.00 0.00 0 6.86 0.00 0 6.86 0.00 0 6.86 0.00 0 0.00 15.00 0 -6.03 0.00 0 -6.03 0.00 0 -6.03 0.00 0 0.00 25.00 0 -5.17 0.00 0 -5.17 0.00 0 -5.17 
-175.55 90.88 100.53 89.70 3.01 -5.59 -7.82 -4.83 -7.42 -0.00 16.85 -0.00 -37.86 -2.74 18.20 -23.82 -19.68 16.36 0.00 37.07 0.00 4.88 -17.72 -9.47 -4.50 6.56 -5.61 -1.16 1.55 -1.35 -2.01 2.43 -2.26 0.24 2.66 0.03 -0.01 40.70 -1.03 6.89 28.70 1.28 20.34 -11.51 -10.16 12.70 -33.21 19.03 -0.7 -50.26 11.88 -6.01 -10.55 -28.44 -50.63 -0 16.66 9.28 -0 -13.16 -1.85 -0 0.00 0 -0 0.00 -15 -0 10.40 0 -0 44.98 0 -0 22.49 0 -0 0.00 0 -0 30.25 0 -0 30.25 0 -0 30.25 0 -0 0.00 15 -0 42.96 0 -0 42.96 0 -0 42.96 0 -0 0.00 25 -0 51.47 0 -0 51.47 0 -0 51.47 -4.46 -6.01 1.56 14.69 -16.43 20.41 -48.92 -3.31 -7.15 -51.22 29.9 23.60 -12.77 0 -42.53 -15.51 0 1.68 15.89 0 0.00 0.00 0 0.00 -15.00 0 10.75 0.00 0 -2.65 0.00 0 -1.33 0.00 0 0.00 0.00 0 6.61 0.00 0 6.61 0.00 0 6.61 0.00 0 0.00 15.00 0 -6.15 0.00 0 -6.15 0.00 0 -6.15 0.00 0 0.00 25.00 0 -5.40 0.00 0 -5.40 0.00 0 -5.40 
-175.55 90.88 100.47 89.78 3.04 -5.65 -7.86 -4.73 -7.40 0.00 16.62 0.00 -37.90 -2.61 18.16 -23.86 -19.76 16.41 -0.00 37.14 -0.00 4.77 -17.74 -9.40 -4.46 6.48 -5.54 -1.15 1.53 -1.33 -1.99 2.40 -2.23 0.23 2.66 0.04 0.00 40.81 -0.98 6.78 28.71 1.30 20.04 -11.39 -10.19 12.10 -31.32 19.17 -4.2 -46.67 12.69 -6.72 -9.78 -29.31 -49.73 -0 15.27 11.08 -0 -14.55 -3.3 -0 0.00 0 -0 0.00 -15 -0 8.94 0 -0 45.67 0 -0 22.84 0 -0 0.00 0 -0 29.61 0 -0 29.61 0 -0 29.61 0 -0 0.00 15 -0 42.62 0 -0 42.62 0 -0 42.62 0 -0 0.00 25 -0 50.87 0 -0 50.87 0 -0 50.87 -4.85 -5.89 1.49 14.94 -16.52 20.35 -48.68 -3.51 -6.90 -51.29 29.74 24.00 -12.75 0 -42.64 -15.46 0 1.58 17.81 0 0.00 0.00 0 0.00 -15.00 0 10.40 0.00 0 -2.50 0.00 0 -1.25 0.00 0 0.00 0.00 0 6.44 0.00 0 6.44 0.00 0 6.44 0.00 0 0.00 15.00 0 -6.23 0.00 0 -6.23 0.00 0 -6.23 0.00 0 0.00 25.00 0 -5.52 0.00 0 -5.52 0.00 0 -5.52 
